<svg xmlns="http://www.w3.org/2000/svg" xmlns:xlink="http://www.w3.org/1999/xlink" viewBox="0 0 629.06 380.77"><defs><style>.cls-1{isolation:isolate;}.cls-2{fill:#98c4f9;}.cls-11,.cls-3,.cls-30{opacity:0.25;mix-blend-mode:overlay;}.cls-4{fill:url(#linear-gradient);}.cls-5{fill:#ff6643;}.cls-6{fill:#092533;}.cls-7{fill:url(#linear-gradient-2);}.cls-8{fill:url(#linear-gradient-3);}.cls-9{fill:#4d5aff;}.cls-10{fill:url(#linear-gradient-4);}.cls-11,.cls-19,.cls-30{fill:none;stroke-miterlimit:10;}.cls-11{stroke:#fff;}.cls-11,.cls-30{stroke-width:0.46px;}.cls-12{fill:#6c5be8;}.cls-13{fill:#ff9280;}.cls-14{fill:#350909;}.cls-15{fill:url(#linear-gradient-5);}.cls-16{fill:url(#linear-gradient-6);}.cls-17{fill:#12006d;}.cls-18{fill:url(#linear-gradient-7);}.cls-19{stroke:#092533;stroke-width:0.92px;}.cls-20{fill:url(#linear-gradient-8);}.cls-21{fill:url(#linear-gradient-9);}.cls-22{fill:url(#linear-gradient-10);}.cls-23{fill:url(#linear-gradient-11);}.cls-24{fill:url(#linear-gradient-12);}.cls-25{fill:#ff7900;}.cls-26{fill:#c64200;}.cls-27{fill:url(#linear-gradient-13);}.cls-28{fill:url(#linear-gradient-14);}.cls-29{fill:#ffb000;}.cls-30{stroke:#000;}.cls-31{fill:url(#linear-gradient-15);}.cls-32{fill:url(#linear-gradient-16);}.cls-33{fill:url(#linear-gradient-17);}.cls-34{fill:url(#linear-gradient-18);}</style><linearGradient id="linear-gradient" x1="415.84" y1="214.65" x2="423.71" y2="340.5" gradientUnits="userSpaceOnUse"><stop offset="0" stop-color="#ffb000"/><stop offset="1" stop-color="#ff7900"/></linearGradient><linearGradient id="linear-gradient-2" x1="117.86" y1="180.6" x2="118.76" y2="172.07" gradientUnits="userSpaceOnUse"><stop offset="0" stop-color="#ffc5ae"/><stop offset="1" stop-color="#ea8b6a"/></linearGradient><linearGradient id="linear-gradient-3" x1="129.22" y1="177.75" x2="121.35" y2="178.32" xlink:href="#linear-gradient-2"/><linearGradient id="linear-gradient-4" x1="118.92" y1="209.85" x2="126.13" y2="183.96" xlink:href="#linear-gradient-2"/><linearGradient id="linear-gradient-5" x1="406.6" y1="114.92" x2="406.93" y2="107.43" xlink:href="#linear-gradient-2"/><linearGradient id="linear-gradient-6" x1="408.05" y1="118.11" x2="407.81" y2="112.79" xlink:href="#linear-gradient-2"/><linearGradient id="linear-gradient-7" x1="391.62" y1="158.31" x2="397.52" y2="119.97" xlink:href="#linear-gradient-2"/><linearGradient id="linear-gradient-8" x1="424.62" y1="112.06" x2="429.21" y2="136.26" xlink:href="#linear-gradient-2"/><linearGradient id="linear-gradient-9" x1="294.49" y1="76.37" x2="297.36" y2="82.46" xlink:href="#linear-gradient-2"/><linearGradient id="linear-gradient-10" x1="290.14" y1="76.22" x2="297.27" y2="79.21" xlink:href="#linear-gradient-2"/><linearGradient id="linear-gradient-11" x1="294.23" y1="73.92" x2="298.82" y2="83.67" xlink:href="#linear-gradient-2"/><linearGradient id="linear-gradient-12" x1="359.56" y1="83.57" x2="346.54" y2="99.06" xlink:href="#linear-gradient-2"/><linearGradient id="linear-gradient-13" x1="323.13" y1="107.18" x2="321.73" y2="90.95" xlink:href="#linear-gradient-2"/><linearGradient id="linear-gradient-14" x1="320.74" y1="107.3" x2="321.4" y2="103.12" xlink:href="#linear-gradient-2"/><linearGradient id="linear-gradient-15" x1="541.89" y1="50.69" x2="338.78" y2="97.7" gradientUnits="userSpaceOnUse"><stop offset="0" stop-color="#fff" stop-opacity="0"/><stop offset="1" stop-color="#98c4f9"/></linearGradient><linearGradient id="linear-gradient-16" x1="-1475.23" y1="738.18" x2="-1678.34" y2="785.19" gradientTransform="translate(-1302.68 -745.85) rotate(-124.33)" xlink:href="#linear-gradient-15"/><linearGradient id="linear-gradient-17" x1="563.01" y1="236.37" x2="271.47" y2="303.85" xlink:href="#linear-gradient-15"/><linearGradient id="linear-gradient-18" x1="-1776.8" y1="252.61" x2="-2068.34" y2="320.09" gradientTransform="matrix(-1, 0, 0, 1, -1710.75, 0)" xlink:href="#linear-gradient-15"/></defs><g class="cls-1"><g id="Capa_2" data-name="Capa 2"><g id="OBJECTS"><path class="cls-2" d="M491.13,250.58l-9.19-27-15.36,5.23-31.36-92-35,11.91.1.31-11.27,48.68L373,267l9.36,20.66,33-11.25,12-4.09,13.38-4.56,10.93,32.06,35-11.92-10.92-32.05Zm-63.57-8.44-7.93,2.7L404.44,250l10.36-51.47,1-4.27,15.84,46.47Z"/><polygon class="cls-3" points="475.77 255.82 486.7 287.87 464.43 278.35 428.84 150.1 415.78 194.28 409.73 219.29 389.09 197.72 400.36 149.04 400.26 148.73 435.22 136.82 466.58 228.84 481.94 223.61 491.13 250.58 475.77 255.82"/><path class="cls-3" d="M427.43,272.29l-12,4.09,1.76-24.76V247.1l2.45-2.26,1.57-1.45,6.36-1.25S427.16,260.33,427.43,272.29Z"/><path class="cls-4" d="M427.56,242.14a10,10,0,0,0-8.25-3.34c-5.24.44-8.17,2.41-8.34,7.87s1.12,33-.07,43.91,6.25,12,6.67,3.94-2.73-33.43-.39-37.58.92,4.58,3.38,7.43,5.09-2.19,2.47-9S427.56,242.14,427.56,242.14Z"/><path class="cls-5" d="M107.38,201.35a6.22,6.22,0,0,1-1.85-.17c-.33-.14-1.36-.56-10.28-16.49l1.61-.9c3.33,6,8.38,14.6,9.45,15.71a94.32,94.32,0,0,0,11-.69l.18,1.83C114.56,200.94,110,201.35,107.38,201.35Z"/><path class="cls-6" d="M139.72,209.07v.54s-.48,10.11-8.05,9.67h-.06c-4.68-.31-10.47-2.49-14.35-4.11-2.44-1-4.14-1.82-4.32-1.79-.5.08,5.73,26,5.65,27.44a2.53,2.53,0,0,1-.13.63c-.44,1.4-2,3.08-2.9,3.22-.1,0-.3-.16-.58-.51-2.81-3.5-14-23.82-14.26-30.46-.32-7.29,3.37-11.68,8.36-12.52,3.69-.61,14.47.87,19.87,1.7,1.92.29,3.16.5,3.16.5Z"/><path class="cls-3" d="M118.59,240.82a2.53,2.53,0,0,1-.13.63c-.44,1.4-2,3.08-2.9,3.22-.1,0-.3-.16-.58-.51,4-5.6-6.39-32.84-4.14-32.92,1.11,0,3.57,1.86,6.42,3.93-2.44-1-4.14-1.82-4.32-1.79C112.44,213.46,118.67,239.35,118.59,240.82Z"/><path class="cls-3" d="M139.72,209.07v.54s-.48,10.11-8.05,9.67c1.49-1.19,1.76-3.29,1.65-5.82-.12-2.94-2.84-8-4.37-10.58,1.92.29,3.16.5,3.16.5Z"/><path class="cls-6" d="M123.62,175.88a2.19,2.19,0,0,0-.42,1l0-.05c-.08-.15-.4-.7-.81-1.33-.69-1.07-1.64-2.39-2.22-2.56-.92-.25-3.38,2.86-6.7,3.11a5,5,0,0,1-.67,0c-3.66-.16-7.54-5.35-4.42-11.47a4.05,4.05,0,0,0,3.33,2.3,1.94,1.94,0,0,1-1.42-2c4,.71,6.06-2.3,9.5-1.2s3.23,3.17,3.23,3.17,2.62-1,3.43,2.23C127.08,171.72,124.63,174.31,123.62,175.88Z"/><path class="cls-7" d="M123.17,176.81a6.91,6.91,0,0,1-1.28,2.46,3.59,3.59,0,0,1-2.79,1.52c-2.32,0-4.63-3.18-5.66-4.76,3.32-.25,5.78-3.36,6.7-3.11.58.17,1.53,1.49,2.22,2.56C122.77,176.11,123.09,176.66,123.17,176.81Z"/><path class="cls-8" d="M126.53,177.13s-1.74,4-2.4,3.12a4.24,4.24,0,0,0-2.24-1,6.91,6.91,0,0,0,1.28-2.46l0,.05a2.19,2.19,0,0,1,.42-1A7.7,7.7,0,0,0,126.53,177.13Z"/><path class="cls-9" d="M138.82,210.83c-2.78-.4-10.32-8.6-10.32-12.12a10.1,10.1,0,0,0-.15-1.65c-.57-3.67-2.69-9.05-3.58-12.85-1-4.43.45-6.08.45-6.08,3.43-5.9,11.2,5.79,15.62,15.17h0a24.2,24.2,0,0,1,2.56,8.06C143.73,208,141.61,211.24,138.82,210.83Z"/><path class="cls-3" d="M138.82,210.83c-2.78-.4-10.32-8.6-10.32-12.12a10.1,10.1,0,0,0-.15-1.65v-1.58l2.73-14.3s3.77,4.48,4.37,12.51,9.44,9.77,5.41-.39a24.2,24.2,0,0,1,2.56,8.06C143.73,208,141.61,211.24,138.82,210.83Z"/><path class="cls-9" d="M133,193.14a1.09,1.09,0,0,1-.37.16,22.3,22.3,0,0,1-6.63,0,3.32,3.32,0,0,1-.54-.16c-1-.49,0-1.7-.33-3.83S124,181,127.14,179s5.73,5.58,5.84,9.35S133.69,192.54,133,193.14Z"/><path class="cls-10" d="M132.61,193.3s-.15,9.21-1.91,13.55h0c-.55,1.35-1.25,2.23-2.16,2.21-3.81-.08-12.37-9.13-13.15-9.46s-4.67.25-4.55-.33,1.64-1.84,3.28-2.45,1.35-.25,11.88,4.58c-.14-.92-.08-4.94,0-7.22,0-.34,0-.65,0-.89A22.3,22.3,0,0,0,132.61,193.3Z"/><path class="cls-9" d="M121.73,247.05c.26,1.64-10.76,12.86-10.19,9.92s4-12.3,4-12.3c.92-.14,2.46-1.82,2.9-3.22C119.36,243,121.5,245.69,121.73,247.05Z"/><path class="cls-11" d="M131.67,212.58s-17.7-3.32-21.19-1.71,6.39,29.57,6.39,29.57"/><path class="cls-3" d="M130.7,206.85c.34-1.84.59-7.22-.34-9.34-.63-1.44-3-2.67-4.4-3.32,0-.34,0-.65,0-.89a22.3,22.3,0,0,0,6.63,0S132.46,202.51,130.7,206.85Z"/><path class="cls-12" d="M416.71,144.57a50.9,50.9,0,0,1-1.89,5.53c-1.32,3.41-3.32,8.05-6.27,14.53-.07,3.28-1.12,24.25-1.4,29.08,0,.59-.06.94-.07,1,0,.21-.8.62-1.63.83s-1.62.23-2-.25c-.74-1-5.74-20.81-6-25.49s-.49-3.6,5.24-22.2c-1.39.66-10.42.41-10.42.41S394,170.77,394,170.93a.5.5,0,0,1,0,.16,4.26,4.26,0,0,1-.8,1.36c-.16.16-.32.25-.48.2a2.5,2.5,0,0,1-.6-.54,60.59,60.59,0,0,1-9.06-13.8c-3-6.8-3.77-11.55-.9-16.3s17.39-5.12,17.39-5.12c.92.26,3,.52,5.13,1a17.9,17.9,0,0,1,1.81.51c3.18,1.05,9.24,2.4,10.55,1.64A8,8,0,0,1,416.71,144.57Z"/><path class="cls-5" d="M428.75,128.74c-.58.33-7.25.08-11.76-1.64,0,.79.12,2,.24,3.46.18,2.24.38,4.91.33,6.85,0,1.38-.19,2.4-.57,2.63h0c-.69.4-2.73.21-5-.21-1.44-.28-3-.65-4.27-1l-1.32-.41c-2.56-.86-5.75-1.18-6.94-1.52-.3-.08-.47-.16-.48-.25,0-.45,1.11-1.47,1.65-2.54.06-.13.15-.33.25-.58a46.68,46.68,0,0,0,1.45-4.58c.2-.79.27-1.32.1-1.23-.54.29-3.69,6.19-4.06,6.19a7.25,7.25,0,0,1-1.52-.88c-1.26-.86-2.86-2.12-2.9-2.72a.24.24,0,0,1,.08-.21c.74-.7,6.39-10.2,8.44-12.23a8.41,8.41,0,0,1,3-1.87,8,8,0,0,1,1.81-.47,13.3,13.3,0,0,1,3.65.42c4.06,1,7.79,3.58,9.91,4.85,2.75,1.64,4.63,1.19,5.33,1.6S429.32,128.41,428.75,128.74Z"/><path class="cls-13" d="M417.56,137.41c-3.78,0-12.18-.29-16.66-3.89a46.68,46.68,0,0,0,1.45-4.58s8.87,2.69,14.88,1.62C417.41,132.8,417.61,135.47,417.56,137.41Z"/><path class="cls-3" d="M411,115.94c-.15,1.57-.71,3.26-2.42,3.13a3.23,3.23,0,0,1-3-3.08,8,8,0,0,1,1.81-.47A13.3,13.3,0,0,1,411,115.94Z"/><path class="cls-14" d="M410,112.51a6.72,6.72,0,0,0-1.24-2.54c-.66,1.09-3.23,1.64-5.21,1.79a8.19,8.19,0,0,1-2.16-.06,6.08,6.08,0,0,1,5.37-8c2.41-.17,4.59,1.63,3.93,4.37C412.81,110.26,410,112.51,410,112.51Z"/><path class="cls-15" d="M410,112.51a9.84,9.84,0,0,1-.65,1.58h0a2.22,2.22,0,0,1-3,1.21l-.16-.07a4.69,4.69,0,0,1-2.37-2.7,6.18,6.18,0,0,1-.23-.77c2-.15,4.55-.7,5.21-1.79l.11.13A7.12,7.12,0,0,1,410,112.51Z"/><path class="cls-16" d="M409.74,116.69c-.25,1.52-2.75,1.44-3,.45-.14-.51-.3-1-.43-1.36s-.19-.55-.19-.55h0l.16.07a2.22,2.22,0,0,0,3-1.21h0c-.17.34.28.77.43,1.57A2.93,2.93,0,0,1,409.74,116.69Z"/><path class="cls-17" d="M396.75,176.75c-.24,1.88-10,9.26-9.83,7.95s5.13-12.59,5.13-12.59a2.5,2.5,0,0,0,.6.54c.5.15,1.12-1.1,1.28-1.56C395.24,172.74,397,175.07,396.75,176.75Z"/><path class="cls-17" d="M403.47,210.62c-2.29-4.92,0-15.35,0-15.35.74,1,3.52-.17,3.61-.58,0,0,0-.39.07-1,0,0,.36,5,.8,9.23S405.77,215.53,403.47,210.62Z"/><path class="cls-3" d="M402.73,147.58c-1.39.66-10.42.41-10.42.41S394,170.77,394,170.93a.5.5,0,0,1,0,.16,4.26,4.26,0,0,1-.8,1.36c-1.66-7.8-5-22.74-2.33-25.3,3.39-3.28,12.56-4.15,12.7-3.44A19.09,19.09,0,0,1,402.73,147.58Z"/><path class="cls-18" d="M396.24,136.82a1.08,1.08,0,0,0-.17.66c.2.76-.85,10.32-.46,11.3a18.56,18.56,0,0,1,.38,6.07c-.22,2-4.32,3.17-4.32,1.47s.49-5.68.66-7.21-1.37-12.59-1-14.12a17.58,17.58,0,0,1,2-3.74c.37-.57.63-.95.63-.95.06,1,4.09,3.6,4.42,3.6A17.81,17.81,0,0,0,396.24,136.82Z"/><path class="cls-3" d="M416.71,144.57a8.51,8.51,0,0,1-5.26-2.34,25.9,25.9,0,0,0-6.84-4.33,17.9,17.9,0,0,1,1.81.51c3.18,1.05,9.24,2.4,10.55,1.64A8,8,0,0,1,416.71,144.57Z"/><path class="cls-3" d="M414.82,150.1c-1.32,3.41-3.32,8.05-6.27,14.53-.07,3.28-1.12,24.25-1.4,29.08,0,.59-.06.94-.07,1,0,.21-.8.62-1.63.83.19-7.07-.06-22.47,1.13-27.05C408,163,414.42,150.86,414.82,150.1Z"/><path class="cls-3" d="M407.74,138.82l-1.32-.41c-2.56-.86-5.75-1.18-6.94-1.52-.3-.08-.47-.16-.48-.25,0-.45,1.11-1.47,1.65-2.54s2.33-6.68,1.8-6.39-3.69,6.19-4.06,6.19a7.25,7.25,0,0,1-1.52-.88l.27-.41c2-2.89,5.18-6.5,5.73-9.61.44-2.29,1.09-1,1,2C403.75,127.62,403.61,135.73,407.74,138.82Z"/><path class="cls-3" d="M417,140h0c-.69.4-2.73.21-5-.21,4-4,1.82-14.85,2.44-14.3A15.93,15.93,0,0,0,417,127.1C417.07,130.05,418.26,139.27,417,140Z"/><path class="cls-3" d="M398.39,133.9a17.81,17.81,0,0,0-2.15,2.92c0-.24,0-.47-.06-.67-.12-1.17-1.95-3.72-2.84-4.9.37-.57.63-.95.63-.95C394,131.26,398.06,133.9,398.39,133.9Z"/><path class="cls-3" d="M408.82,110.1c-1,2.17-3.87,2.42-5.09,2.43a6.18,6.18,0,0,1-.23-.77c2-.15,4.55-.7,5.21-1.79Z"/><path class="cls-3" d="M409.73,115.66a1.7,1.7,0,0,1-.69.32,4.18,4.18,0,0,1-2.75-.2c-.11-.33-.19-.55-.19-.55h0l.16.07a2.22,2.22,0,0,0,3-1.21h0C409.13,114.43,409.58,114.86,409.73,115.66Z"/><line class="cls-19" x1="422.81" x2="422.81" y2="157.91"/><path class="cls-20" d="M431.41,125.82l0,.16c-.54,2.46-2.52,2.73-2.89,2.57s-1.36-1.3-2.22-5.28c0-.08,0-.16,0-.24s-1.86-4.76-2.73-7c-2.16-1.28-2.57-.76-2.87-2.24a4.34,4.34,0,0,1,1.2-3.66c.55-.27,3,2,3.34,2.87S431.9,123.19,431.41,125.82Z"/><path class="cls-3" d="M431.38,126c-.54,2.46-2.52,2.73-2.89,2.57s-1.36-1.3-2.22-5.28a8.42,8.42,0,0,0,2.31,3.13A2,2,0,0,0,431.38,126Z"/><path class="cls-5" d="M359,255l-5.27-26.91q-5.84-29.85-22.55-43.56t-41.28-8.89q-24.57,4.81-34.84,23.69t-4.41,48.84l5.29,27q5.82,29.75,22.53,43.46A43.63,43.63,0,0,0,294,326.94q11.6,3.4,25.85.61a61.3,61.3,0,0,0,13.48-4.18,43.93,43.93,0,0,0,21.26-19.49Q364.86,285,359,255ZM326.1,291.16q-2.7,8.28-11.43,10-9,1.77-14.7-5.08-3.87-4.68-6.61-13.87h0v0c-.85-2.84-1.61-6-2.29-9.49l-7.4-37.78q-2.6-14.88,0-23t11.42-9.82a14.15,14.15,0,0,1,11.62,2.26h0a16.67,16.67,0,0,1,3.11,3q5.71,7,8.83,23l7.16,36.56Q328.81,282.88,326.1,291.16Z"/><path class="cls-3" d="M328.75,296.21c1.51,2.33,3.53,18.21,4.57,27.16a61.3,61.3,0,0,1-13.48,4.18q-14.26,2.79-25.85-.61a20.36,20.36,0,0,0,.85-2.22c4.83-14.73-1.2-41.32-1.48-42.52q2.75,9.19,6.61,13.87,5.67,6.85,14.7,5.08,8.73-1.71,11.43-10t-.31-24.24l-7.16-36.56q-3.12-15.93-8.83-23a16.67,16.67,0,0,0-3.11-3c11.63,2.28,21.07,38.28,25,55.64S336,285.4,328.75,296.21Z"/><path class="cls-12" d="M295.93,289.27s.75,2,4.71,3.06,7.68-5,10.3-3.06,6.82,10.14,10.51,8.89,4.78,18.42,3,20.61-3-15.47-7.62-14.95-1.12,13.86-3.74,16.26-1.53-5.9-4.37-7.43,3.05,66.86-1.32,68-7.21-3.06-5.46-17.7-.43-65.11-3.06-67.73S296.47,292.06,295.93,289.27Z"/><line class="cls-19" x1="294.84" x2="294.84" y2="184.62"/><path class="cls-17" d="M351.57,92.36s-3.49-9.55-3.2-10.28,4.11-2.13,4.39-1.72,2.7,7.82,2.29,8.35S351.57,92.36,351.57,92.36Z"/><path class="cls-21" d="M293.64,79.84A6.26,6.26,0,0,1,296.71,83c.94,2.29.57-6,.57-6l-1-1Z"/><path class="cls-22" d="M292.53,79.84A30.76,30.76,0,0,0,295.65,82c.45.13,1.32-5.08.92-5.9s-1.84-1.63-2.77-1.1S292.1,79.52,292.53,79.84Z"/><path class="cls-23" d="M299.62,80.44s-2.12-4.92-3.05-5.78-2.64.25-2.77.7,2.06.78,2.77,1.51-1.21,6.19.63,8.11S299.62,80.44,299.62,80.44Z"/><path class="cls-24" d="M348.94,93.46a11.87,11.87,0,0,0,2.3-1.55c.41-.53-.33-2.54.86-4.39s3.73-1.31,4.34.91-1,5-1.72,5.85-5.78,4.47-5.78,4.47"/><path class="cls-25" d="M350.29,97.74a4.3,4.3,0,0,1-1,1.65c-2.39,2.79-9,8.27-20.85,14.52a28.53,28.53,0,0,0-.56,2.9,47.55,47.55,0,0,0-.28,9.09c0,.72.08,1.43.13,2.11.21,3,.51,5.44.43,6.87a1.9,1.9,0,0,1-.36,1.23,5.82,5.82,0,0,1-.84.64c-5.93,3.8-16.72-1.88-18.47-3.59a.94.94,0,0,1-.24-.32c-.3-1.15.87-2.38,1.53-4.35a13.25,13.25,0,0,0,.33-2.11c.31-3,.59-8.45.68-12.53a39,39,0,0,0-.08-5.2v0c-.33-1.33-10.27-16.36-13.26-21.68a7,7,0,0,1-.84-1.8c.11-1.2,2.41-5.46,2.9-5.41a4.62,4.62,0,0,1,.85,1c2.3,3.2,8.5,12.87,9.64,14.1s6.49,6.87,8.82,9.32c.66.68,1.07,1.12,1.07,1.12a28.39,28.39,0,0,0,3.78-.34c11.18-1.72,22.16-9.55,25-11.72l.72-.56S350.54,96.21,350.29,97.74Z"/><path class="cls-26" d="M322.4,110.25c-3.81.61-3.82-4.35-3.62-6.06.66.68,1.07,1.12,1.07,1.12a28.39,28.39,0,0,0,3.78-.34C324.11,106.92,323.73,110,322.4,110.25Z"/><path class="cls-17" d="M326.26,99.61a3.71,3.71,0,0,1-2.93.29A10.83,10.83,0,0,1,320,98.26a6.08,6.08,0,0,0-1.1,3.48c-2.71-2.34-3.37-4.67-1.07-5.53-.94-4.1,1.07-5,4.42-5.16s4.14,3.24,6.15,3.15C328.5,96,328,98.6,326.26,99.61Z"/><path class="cls-27" d="M326.26,99.61a11.13,11.13,0,0,1-.17,1.13c-.45,2.39-1.62,5.73-3.4,5.55a.79.79,0,0,1-.29-.06,5.55,5.55,0,0,1-3.06-3.19,8,8,0,0,1-.46-1.3,7.09,7.09,0,0,1,.29-1.83,5,5,0,0,1,.81-1.65,10.83,10.83,0,0,0,3.35,1.64A3.71,3.71,0,0,0,326.26,99.61Z"/><path class="cls-28" d="M322.69,107.7c0,.87-.14,1.55-.72,1.59-1.17.08-2.73-1.45-2.64-3.11,0-.57,0-1.17,0-1.72s0-1.06,0-1.42a5.55,5.55,0,0,0,3.06,3.19.79.79,0,0,0,.29.06C322.69,106.77,322.71,107.26,322.69,107.7Z"/><path class="cls-26" d="M350.29,97.74a4.3,4.3,0,0,1-1,1.65,45.37,45.37,0,0,0-.58-6.14l.72-.56S350.54,96.21,350.29,97.74Z"/><path class="cls-26" d="M300.32,80.77c-1.75,1.49-2.6,4.74-2.91,6.18a7,7,0,0,1-.84-1.8c.11-1.2,2.41-5.46,2.9-5.41A4.62,4.62,0,0,1,300.32,80.77Z"/><path class="cls-29" d="M327.69,128c-3.91.57-11.26,1.07-17.62-1.63.31-3,.59-8.45.68-12.53,3.15,1.34,9.95,3.71,17.09,3A52.22,52.22,0,0,0,327.69,128Z"/><path class="cls-3" d="M326.92,136.75c-6.39,4.1-18.43-2.82-18.71-3.91s.87-2.38,1.53-4.35a13.25,13.25,0,0,0,.33-2.11c.31-3,.59-8.45.68-12.53a39,39,0,0,0-.08-5.2,114,114,0,0,1,3.41,13.94c1.15,6.88.9,10.16,4.26,12.37C320.31,136.26,323.9,136.94,326.92,136.75Z"/><path class="cls-2" d="M341.53,155.67c0,2.84-10.27,18.58-12.4,21.81-.25.37-.38.58-.38.58a13.57,13.57,0,0,1-2.42-.52c-.76-.26-1.4-.62-1.4-1.12A2.48,2.48,0,0,1,325,176c.36-2.19,2.62-10.13,5.51-20.62-1.52-1.86-12.23-9-12.23-9a0,0,0,0,0,0,0c-.46,1.07-15.33,35.44-17,38.64a1.76,1.76,0,0,1-.13.22c-.77,1-3.93,1.09-4.15-1h0c-.92-8.69,6.58-34.89,10.07-46.48.62-2.08,1.12-3.69,1.42-4.64,1.75,1.71,12.54,7.39,18.47,3.59a5.82,5.82,0,0,0,.84-.64,1.9,1.9,0,0,0,.36-1.23c.11.12.23.24.34.38C332.6,140,341.53,152.93,341.53,155.67Z"/><path class="cls-17" d="M302.28,189.86c-.41,2-11.22,8.11-10.24,4.44.8-3,3.81-8.16,4.92-10h0c.22,2.07,3.38,2,4.15,1a1.76,1.76,0,0,0,.13-.22C301.79,186.63,302.55,188.54,302.28,189.86Z"/><path class="cls-17" d="M332.68,188.06c-.82.41-11.47-3.69-11.23-5.08s3.53-7,3.53-7a2.48,2.48,0,0,0-.05.46c0,1.2,3.82,1.64,3.82,1.64s.13-.21.38-.58C329.6,181.73,333.45,187.67,332.68,188.06Z"/><path class="cls-30" d="M316.87,145.21s-11.8,23.17-16.23,39.07"/><path class="cls-30" d="M319.65,145.21s13.11,8.6,13.6,10-6.8,20.76-6.8,20.76"/><path class="cls-3" d="M328.46,135.26c-1.44,5.77-9.8,4.2-14.08,3.09a25.44,25.44,0,0,0-7.35-.55c.62-2.08,1.12-3.69,1.42-4.64,1.75,1.71,12.54,7.39,18.47,3.59a5.82,5.82,0,0,0,.84-.64,1.9,1.9,0,0,0,.36-1.23C328.23,135,328.35,135.12,328.46,135.26Z"/><path class="cls-3" d="M326.33,177.54c-.76-.26-1.4-.62-1.4-1.12A2.48,2.48,0,0,1,325,176c.36-2.19,2.62-10.13,5.51-20.62-1.52-1.86-12.23-9-12.23-9s.87-2.95,1.86-3.17,12.34,9.56,13.6,11.58C334.82,156.57,327.09,171.08,326.33,177.54Z"/><path class="cls-3" d="M326.26,99.61a11.13,11.13,0,0,1-.17,1.13c-2.86,1.45-5.67-1.83-6-1.79-.19,0-.58.52-.91,1a5,5,0,0,1,.81-1.65,10.83,10.83,0,0,0,3.35,1.64A3.71,3.71,0,0,0,326.26,99.61Z"/><path class="cls-3" d="M322.69,107.7c-1.89-.46-2.93-2.35-3.33-3.24,0-.56,0-1.06,0-1.42a5.55,5.55,0,0,0,3.06,3.19.79.79,0,0,0,.29.06C322.69,106.77,322.71,107.26,322.69,107.7Z"/><path class="cls-3" d="M327.84,116.81a47.55,47.55,0,0,0-.28,9.09c-.75-3.14-1.4-6.52-.64-8.47a22.48,22.48,0,0,1,1.48-3.52A28.53,28.53,0,0,0,327.84,116.81Z"/><path class="cls-12" d="M235.86,148.16l-35.38-6.07,0,.31-78.12,87.95-1.61,22,11.2,1.92,19.4,3.33,26,4.48,2.47.42-1.86,10.85-.87,5-2.84,16.58,23,3.95L209.6,301l5.57-32.43,15.54,2.67,4.69-27.3-15.54-2.67ZM191.7,193.23l-7.22,42-8.62-1.49L157,230.47,167.43,218l2.39-2.86,19.93-23.78,2.82-3.19Z"/><path class="cls-3" d="M177.33,262.07l-26-4.48c3.06-10.12,6.89-24.08,5.68-27.12l18.88,3.24a19.11,19.11,0,0,1,2.42,8.59C178.74,249,177.74,255.9,177.33,262.07Z"/><path class="cls-2" d="M158.11,230.67s2.84-3.94,9.23-2.71,6.88,9.09,4.09,17.78-3.44,39-2.13,48.83.5,14.42-2.62,14.75-4.59-11.8-2.78-20.32,1.64-16.39-1.31-15.08-.5,4.59-2,7.54-5.9,1.15-5.74-4.42S164,235.26,158.11,230.67Z"/><polygon class="cls-3" points="219.86 241.27 235.4 243.94 230.71 271.24 215.17 268.57 209.6 301 197.25 298.88 218.96 163.45 235.86 148.16 219.86 241.27"/><line class="cls-19" x1="209.29" x2="209.29" y2="163.35"/><path class="cls-25" d="M275.16,108.65a6.39,6.39,0,1,1-6.39-6.39A6.39,6.39,0,0,1,275.16,108.65Z"/><path class="cls-12" d="M497.52,189.87a6.39,6.39,0,1,1-6.39-6.39A6.39,6.39,0,0,1,497.52,189.87Z"/><path class="cls-2" d="M163.37,143.21a6.39,6.39,0,1,1-6.39-6.39A6.39,6.39,0,0,1,163.37,143.21Z"/><path class="cls-5" d="M268.77,338.65a6.39,6.39,0,1,1-6.39-6.39A6.39,6.39,0,0,1,268.77,338.65Z"/><circle class="cls-25" cx="454.6" cy="127.89" r="2.46"/><circle class="cls-2" cx="266.31" cy="166.27" r="2.46"/><path class="cls-12" d="M195,132.9a2.47,2.47,0,1,1-2.46-2.47A2.46,2.46,0,0,1,195,132.9Z"/><path class="cls-31" d="M509,32.46s-9.06-9-26.23-5.42S453.55,57.77,441.05,63.8s-37.14,23.82-39,39c24.07-20,33.11-11.31,48.78-13.72s16.88-20.79,39.48-20.19,46.7,28.69,69.31,13,49.11-34.38,27.72-49.75S522.57,40.3,509,32.46Z"/><path class="cls-32" d="M142.28,93.56s-2.36,12.58,10.31,24.72,41.87,6.81,53.9,13.73,40.62,17.24,54.21,10.18c-30.13-8.57-28-21-38.84-32.55s-26.68-2.21-38.93-21.21-2.65-54.75-28.36-64.56S98.48,2.69,97.85,29,141.1,78,142.28,93.56Z"/><path class="cls-33" d="M579.83,145.67S543.06,186,535.23,233.3s-45.52,44.28-58.32,66.58S433.61,324,419.63,333s-45.83-6.63-51.3,0,28.57,16.88,72.72,17.48,52.59-33.75,91.77-38.57,78.34-21.7,92.21-85.58S615.38,128.27,579.83,145.67Z"/><path class="cls-34" d="M49.24,161.91S86,202.25,93.84,249.54s45.52,44.28,58.31,66.58,43.3,24.1,57.28,33.15,45.83-6.63,51.3,0S232.16,366.14,188,366.74,135.42,333,96.25,328.17,17.9,306.47,4,242.59,13.68,144.52,49.24,161.91Z"/></g></g></g></svg>